<?xml version="1.0" encoding="UTF-8"?><svg id="Calque_2" xmlns="http://www.w3.org/2000/svg" viewBox="0 0 398.577 84.9646"><g id="Components"><g id="_3d9861cb-b0e1-4b64-b4d4-607893a8444f_5"><path d="M9.737,55.0826c0,5.3831,2.1004,10.4463,5.9395,14.2437,3.7835,3.7418,8.7772,5.8005,14.1047,5.8005h.1948l13.4092-.0417c3.7556,1.5857,7.72,3.7418,11.7678,6.4125,1.7665,1.1545,3.547,2.2535,5.3692,3.2689l-30.4906.0974h-.2782c-7.873,0-15.3148-3.0463-20.9344-8.6242C3.1297,70.6061,0,63.0808,0,55.0826c0-16.4277,13.3536-29.7952,29.7812-29.7952h41.7716c-.8346,1.4327-1.3075,3.1019-1.3075,4.8685s.4729,3.4357,1.3075,4.8684H29.7812c-11.0584,0-20.0442,8.9997-20.0442,20.0582Z" style="fill:#fff; stroke-width:0px;"/><path d="M109.2908,84.7664h-4.271c-11.3227,0-22.4503-2.4899-32.7854-7.2749-1.6553-.765-3.2828-1.5857-4.8963-2.476-1.9336-1.0432-3.8253-2.1838-5.6892-3.4079-5.9396-3.8948-14.0769-8.3599-22.6594-10.4047,1.3076-1.6413,2.0726-3.7278,2.0726-5.9813,0-1.7804-.4729-3.4496-1.3214-4.8963h40.2276c5.5359,0,10.6826-2.1978,14.5217-6.1621,3.8391-3.9782,5.8423-9.2084,5.6477-14.7445-.3892-10.7246-9.6951-19.4322-20.7536-19.4322l-79.3841-.0278V.2218l79.3841.0278c16.2471,0,29.9204,12.9223,30.4769,28.8214.2919,8.193-2.6707,15.9547-8.3602,21.8525-5.6887,5.8839-13.3396,9.1388-21.5325,9.1388h-18.5003c1.8361,1.0571,3.6722,2.1977,5.5361,3.4218,11.4897,7.5531,24.6206,11.5452,37.9601,11.5452h4.8684l-.542,9.737Z" style="fill:#fff; stroke-width:0px;"/><path d="M31.3252,64.9586c5.3776,0,9.737-4.3594,9.737-9.737s-4.3593-9.737-9.737-9.737-9.7369,4.3594-9.7369,9.737,4.3593,9.737,9.7369,9.737Z" style="fill:#40dbcb; stroke-width:0px;"/><path d="M79.9822,39.8929c5.3777,0,9.7366-4.3593,9.7366-9.7369s-4.3589-9.737-9.7366-9.737-9.737,4.3594-9.737,9.737,4.3594,9.7369,9.737,9.7369Z" style="fill:#40dbcb; stroke-width:0px;"/><path d="M146.2735.2663c9.4144,0,13.0757,3.0761,13.0757,7.5021,0,3.37-2.1107,5.684-6.5701,6.7124l.4314.4316c2.5784,2.6813,4.4963,3.9026,8.3225,3.9026l-.2659,4.2607c-6.4052,0-8.6253-1.4509-12.846-5.9871l-1.7161-1.8548h-5.184v7.8051h-5.2855V.6612c3.4685-.2663,6.2396-.3949,10.0381-.3949ZM153.77,7.7317c0-2.2773-2.147-3.7373-7.2028-3.7373-1.6515,0-3.4316.0643-5.0559.202v7.2726h4.1936c5.6154,0,8.0561-1.258,8.0561-3.7373h.0091Z" style="fill:#fff; stroke-width:0px;"/><path d="M177.8837,0c7.8639,0,13.8739,3.3424,13.8739,11.8363s-6.01,11.7996-13.8739,11.7996-13.9379-3.3057-13.9379-11.7996,6.0469-11.8363,13.9379-11.8363ZM177.8837,19.77c4.9918,0,8.3594-2.415,8.3594-7.9337s-3.3676-7.9337-8.3594-7.9337-8.3588,2.4426-8.3588,7.9337,3.3398,7.9337,8.3588,7.9337Z" style="fill:#fff; stroke-width:0px;"/><path d="M209.8614,3.8383c-5.8819,0-8.4234,2.8099-8.4234,7.998s2.3125,7.998,8.4234,7.998c2.4406,0,4.955-.5326,6.5696-1.4876v-3.6363h-7.3956l.2296-3.8015h12.3228v9.5865c-2.8443,1.9834-7.1297,3.1404-12.02,3.1404-8.5516,0-13.7361-3.5721-13.7361-11.7996s5.0468-11.8363,14.0298-11.8363c6.6064,0,10.3045,1.9834,11.8551,5.0871l-4.3586,2.516c-1.156-2.4793-3.3675-3.7648-7.4965-3.7648Z" style="fill:#fff; stroke-width:0px;"/><path d="M226.9741,23.039V.5969h21.2689l-.2291,4.0036h-15.7549v5.2891h14.5621l-.2665,3.8016h-14.3048v5.3901h15.984l-.229,3.9669h-21.0399l.0091-.0092Z" style="fill:#fff; stroke-width:0px;"/><path d="M262.6124,4.4994h-10.8V.5969h26.949l-.2659,3.9026h-10.5336v18.5395h-5.3495V4.4994Z" style="fill:#fff; stroke-width:0px;"/><path d="M149.3751,56.6929c-7.7261,0-13.9011-2.7088-13.9011-11.7996,0-8.4938,5.4505-11.8363,13.837-11.8363,6.8355,0,10.5704,2.112,12.0569,5.2249l-4.3586,2.5803c-1.0278-2.4792-3.3403-3.9669-7.662-3.9669-5.8082,0-8.2579,2.9109-8.2579,7.998s2.1101,7.998,8.3588,7.998c4.1658,0,6.4414-1.4508,7.5974-3.9301l4.4595,2.5436c-2.046,3.572-6.34,5.1881-12.1209,5.1881h-.0091Z" style="fill:#fff; stroke-width:0px;"/><path d="M178.5448,33.0571c7.8633,0,13.8733,3.3424,13.8733,11.8363s-6.01,11.7996-13.8733,11.7996-13.9379-3.3057-13.9379-11.7996,6.0469-11.8363,13.9379-11.8363ZM178.5448,52.8271c4.9912,0,8.3588-2.415,8.3588-7.9337s-3.3676-7.9337-8.3588-7.9337-8.3594,2.4426-8.3594,7.9337,3.3403,7.9337,8.3594,7.9337Z" style="fill:#fff; stroke-width:0px;"/><path d="M216.6328,49.2183v-15.5644h5.1846v22.4421h-5.1846l-14.2316-15.6011v15.6011h-5.1562v-22.4421h5.1562l14.2316,15.5644Z" style="fill:#fff; stroke-width:0px;"/><path d="M240.5175,56.6929c-7.7261,0-13.9017-2.7088-13.9017-11.7996,0-8.4938,5.4504-11.8363,13.837-11.8363,6.836,0,10.5704,2.112,12.0569,5.2249l-4.3586,2.5803c-1.0273-2.4792-3.3398-3.9669-7.6615-3.9669-5.8082,0-8.2579,2.9109-8.2579,7.998s2.1101,7.998,8.3588,7.998c4.1658,0,6.4414-1.4508,7.5974-3.9301l4.4595,2.5436c-2.0461,3.572-6.3405,5.1881-12.1209,5.1881h-.0091Z" style="fill:#fff; stroke-width:0px;"/><path d="M257.0333,56.096v-22.4421h21.2695l-.229,4.0036h-15.755v5.2892h14.5616l-.2659,3.8015h-14.3048v5.3901h15.984l-.2296,3.9669h-21.0399l.0091-.0092Z" style="fill:#fff; stroke-width:0px;"/><path d="M283.0927,33.7182c3.4316-.2938,6.6427-.3949,9.9094-.3949,8.983,0,14.1035,2.3783,14.1035,8.1633,0,5.2892-4.5604,8.099-13.938,8.099-1.5874,0-3.1385-.0367-4.79-.1653v6.6757h-5.2849v-22.3778ZM288.3777,37.2902v8.3653c1.4496.1285,3.3035.2938,4.9918.2938,5.2486,0,8.157-1.3223,8.157-4.4628s-2.5784-4.426-7.992-4.426c-1.6883,0-3.5053.101-5.1568.2295Z" style="fill:#fff; stroke-width:0px;"/><path d="M320.5843,37.5566h-10.7994v-3.9026h26.949l-.2664,3.9026h-10.5336v18.5395h-5.3495v-18.5395Z" style="fill:#fff; stroke-width:0px;"/><path d="M136.0136,84.7664v-12.5996h4.4453c.96,0,1.8418.1592,2.6465.4766.8037.3184,1.5029.7588,2.0967,1.3232.5938.5645,1.0596,1.2305,1.3955,1.998s.5039,1.6084.5039,2.5195c0,.9004-.165,1.7314-.4951,2.4932-.3301.7627-.7949,1.4248-1.3955,1.9893-.5996.5645-1.3018,1.0049-2.1055,1.3232-.8047.3174-1.6865.4766-2.6465.4766h-4.4453ZM137.9208,83.0564h2.5742c.6602,0,1.2725-.1143,1.8359-.3418.5645-.2285,1.0596-.5488,1.4854-.9629.4258-.4141.7559-.9004.9902-1.458.2334-.5586.3506-1.1611.3506-1.8096,0-.6592-.1172-1.2686-.3506-1.8271-.2344-.5576-.5645-1.0469-.9902-1.4668s-.9209-.7441-1.4854-.9717c-.5635-.2275-1.1758-.3418-1.8359-.3418h-2.5742v9.1797Z" style="fill:#fff; stroke-width:0px;"/><path d="M151.2772,84.7664v-12.5996h5.7236c.8398,0,1.5752.1553,2.2051.4678s1.1191.7471,1.4668,1.3047c.3477.5586.5225,1.2148.5225,1.9707,0,.8164-.2344,1.5244-.7021,2.124-.4678.6006-1.0918,1.0322-1.8721,1.2969l2.8076,5.4355h-2.124l-2.5918-5.166h-3.5283v5.166h-1.9072ZM153.1845,78.0164h3.6543c.7441,0,1.3379-.1895,1.7822-.5674.4434-.3779.666-.8848.666-1.5205s-.2227-1.1455-.666-1.5303c-.4443-.3838-1.0381-.5762-1.7822-.5762h-3.6543v4.1943Z" style="fill:#fff; stroke-width:0px;"/><path d="M165.2997,84.7664v-12.5996h1.9072v12.5996h-1.9072Z" style="fill:#fff; stroke-width:0px;"/><path d="M175.7929,84.7664l-5.1309-12.5996h2.0527l4.248,10.7275,4.3379-10.7275h1.9619l-5.2197,12.5996h-2.25Z" style="fill:#fff; stroke-width:0px;"/><path d="M186.7011,84.7664v-12.5996h9.3057v1.6553h-7.3984v3.7803h4.8428v1.6201h-4.8428v3.8877h7.4707v1.6562h-9.3779Z" style="fill:#fff; stroke-width:0px;"/><path d="M200.1649,84.7664v-12.5996h1.8535l7.0205,9.3418v-9.3418h1.7998v12.5996h-1.6924l-7.1816-9.6299v9.6299h-1.7998Z" style="fill:#fff; stroke-width:0px;"/><path d="M221.4764,84.7664v-12.5996h5.4541c.8271,0,1.5479.1377,2.1592.4141.6123.2754,1.0898.6631,1.4316,1.1602.3418.498.5127,1.083.5127,1.7559,0,.6113-.1592,1.1514-.4766,1.6191-.3184.4688-.7539.8408-1.3057,1.1162.6963.252,1.248.6328,1.6562,1.1436.4082.5098.6123,1.1064.6123,1.791,0,.7314-.1807,1.3672-.54,1.9072-.3604.54-.8672.957-1.5215,1.251-.6543.2949-1.4131.4414-2.2764.4414h-5.7061ZM223.3837,77.5125h3.4385c.708,0,1.2715-.168,1.6924-.5039.4199-.3359.6299-.792.6299-1.3682s-.21-1.0322-.6299-1.3682c-.4209-.3359-.9844-.5039-1.6924-.5039h-3.4385v3.7441ZM223.3837,83.1648h3.6543c.7803,0,1.4014-.1895,1.8633-.5674s.6934-.8789.6934-1.5029-.2314-1.1221-.6934-1.4941c-.4619-.3721-1.083-.5576-1.8633-.5576h-3.6543v4.1221Z" style="fill:#fff; stroke-width:0px;"/><path d="M238.6835,84.7664v-5.0039l-5.0752-7.5957h2.2139l3.8701,5.9219,3.8691-5.9219h2.1064l-5.0938,7.6318v4.9678h-1.8906Z" style="fill:#fff; stroke-width:0px;"/><path d="M258.4481,84.7664v-10.9082h-4.4287v-1.6914h10.7461v1.6914h-4.4102v10.9082h-1.9072Z" style="fill:#fff; stroke-width:0px;"/><path d="M268.5282,84.7664v-12.5996h9.3057v1.6553h-7.3984v3.7803h4.8428v1.6201h-4.8428v3.8877h7.4707v1.6562h-9.3779Z" style="fill:#fff; stroke-width:0px;"/><path d="M287.2831,84.9646c-.9355,0-1.8027-.165-2.6006-.4951-.7988-.3301-1.5-.792-2.1064-1.3857-.6055-.5947-1.0742-1.2842-1.4033-2.0703-.3311-.7861-.4951-1.6348-.4951-2.5469s.1641-1.7607.4951-2.5469c.3291-.7861.7979-1.4766,1.4033-2.0703.6064-.5938,1.3115-1.0557,2.1152-1.3857.8037-.3301,1.668-.4951,2.5918-.4951.6719,0,1.3203.0869,1.9443.2607.624.1738,1.2031.4229,1.7373.7471.5332.3242,1.0049.7197,1.4131,1.1885l-1.2783,1.2959c-.4805-.5645-1.0527-.9961-1.7188-1.2959-.666-.2998-1.3652-.4502-2.0977-.4502-.6719,0-1.29.1201-1.8535.3594-.5645.2402-1.0566.5762-1.4766,1.0088-.4199.4316-.75.9326-.9893,1.5029-.2402.5693-.3604,1.1963-.3604,1.8809,0,.6719.1201,1.2959.3604,1.8721.2393.5762.5723,1.0771.999,1.5029.4258.4258.9268.7588,1.5029.999.5752.2402,1.1992.3594,1.8721.3594.7314,0,1.4219-.1465,2.0693-.4404.6484-.2939,1.2061-.7051,1.6738-1.2334l1.2422,1.2598c-.4082.4443-.8789.832-1.4131,1.1611-.5342.3301-1.1094.583-1.7275.7559-.6182.1738-1.251.2617-1.8994.2617Z" style="fill:#fff; stroke-width:0px;"/><path d="M296.3378,84.7664v-12.5996h1.9072v5.3994h6.6787v-5.3994h1.9082v12.5996h-1.9082v-5.4902h-6.6787v5.4902h-1.9072Z" style="fill:#fff; stroke-width:0px;"/><path d="M311.5477,84.7664v-12.5996h1.8535l7.0205,9.3418v-9.3418h1.7998v12.5996h-1.6924l-7.1816-9.6299v9.6299h-1.7998Z" style="fill:#fff; stroke-width:0px;"/><path d="M332.9667,84.9646c-.9238,0-1.7852-.165-2.583-.4951s-1.4971-.792-2.0967-1.3857c-.6006-.5947-1.0654-1.2842-1.3945-2.0703-.3311-.7861-.4951-1.6348-.4951-2.5469s.1641-1.7607.4951-2.5469c.3291-.7861.7939-1.4766,1.3945-2.0703.5996-.5938,1.2988-1.0557,2.0967-1.3857.7979-.3301,1.6592-.4951,2.583-.4951.9121,0,1.7646.165,2.5566.4951.792.3301,1.4873.792,2.0879,1.3857.5996.5938,1.0674,1.2842,1.4043,2.0703.335.7861.5039,1.6348.5039,2.5469s-.1689,1.7607-.5039,2.5469c-.3369.7861-.8047,1.4756-1.4043,2.0703-.6006.5937-1.2959,1.0557-2.0879,1.3857s-1.6445.4951-2.5566.4951ZM332.9667,83.2186c.6484,0,1.251-.1201,1.8096-.3604.5576-.2393,1.0469-.5762,1.4668-1.0078s.7471-.9355.9814-1.5117c.2334-.5762.3506-1.2002.3506-1.8721,0-.6846-.1172-1.3115-.3506-1.8809-.2344-.5703-.5615-1.0713-.9814-1.5029-.4199-.4326-.9092-.7686-1.4668-1.0088-.5586-.2393-1.1611-.3594-1.8096-.3594-.6602,0-1.2715.1201-1.8359.3594-.5635.2402-1.0527.5762-1.4668,1.0088-.4141.4316-.7412.9326-.9805,1.5029-.2402.5693-.3604,1.1963-.3604,1.8809,0,.6719.1201,1.2959.3604,1.8721.2393.5762.5664,1.0801.9805,1.5117.4141.4316.9033.7686,1.4668,1.0078.5645.2402,1.1758.3604,1.8359.3604Z" style="fill:#fff; stroke-width:0px;"/><path d="M343.6952,84.7664v-12.5996h1.9072v10.9072h7.2363v1.6924h-9.1436Z" style="fill:#fff; stroke-width:0px;"/><path d="M361.8749,84.9646c-.9238,0-1.7852-.165-2.583-.4951s-1.4971-.792-2.0967-1.3857c-.6006-.5947-1.0654-1.2842-1.3945-2.0703-.3311-.7861-.4951-1.6348-.4951-2.5469s.1641-1.7607.4951-2.5469c.3291-.7861.7939-1.4766,1.3945-2.0703.5996-.5938,1.2988-1.0557,2.0967-1.3857.7979-.3301,1.6592-.4951,2.583-.4951.9121,0,1.7646.165,2.5566.4951.792.3301,1.4873.792,2.0879,1.3857.5996.5938,1.0674,1.2842,1.4043,2.0703.335.7861.5039,1.6348.5039,2.5469s-.1689,1.7607-.5039,2.5469c-.3369.7861-.8047,1.4756-1.4043,2.0703-.6006.5937-1.2959,1.0557-2.0879,1.3857s-1.6445.4951-2.5566.4951ZM361.8749,83.2186c.6484,0,1.251-.1201,1.8096-.3604.5576-.2393,1.0469-.5762,1.4668-1.0078s.7471-.9355.9814-1.5117c.2334-.5762.3506-1.2002.3506-1.8721,0-.6846-.1172-1.3115-.3506-1.8809-.2344-.5703-.5615-1.0713-.9814-1.5029-.4199-.4326-.9092-.7686-1.4668-1.0088-.5586-.2393-1.1611-.3594-1.8096-.3594-.6602,0-1.2715.1201-1.8359.3594-.5635.2402-1.0527.5762-1.4668,1.0088-.4141.4316-.7412.9326-.9805,1.5029-.2402.5693-.3604,1.1963-.3604,1.8809,0,.6719.1201,1.2959.3604,1.8721.2393.5762.5664,1.0801.9805,1.5117s.9033.7686,1.4668,1.0078c.5645.2402,1.1758.3604,1.8359.3604Z" style="fill:#fff; stroke-width:0px;"/><path d="M378.6512,84.9646c-.9248,0-1.7852-.168-2.583-.5039-.7988-.3359-1.4971-.8018-2.0967-1.3955-.6006-.5938-1.0684-1.2842-1.4043-2.0703-.3359-.7852-.5039-1.6289-.5039-2.5283,0-.9004.1641-1.7432.4951-2.5293.3291-.7861.7939-1.4756,1.3945-2.0703.5996-.5938,1.2959-1.0586,2.0879-1.3945s1.6504-.5039,2.5742-.5039c.9961,0,1.9404.1924,2.835.5762.8936.3838,1.6406.9238,2.2412,1.6201l-1.2959,1.2412c-.4688-.54-1.0322-.9561-1.6924-1.251-.6602-.2939-1.3564-.4404-2.0879-.4404-.6602,0-1.2686.1201-1.8271.3594-.5576.2402-1.0469.5762-1.4668,1.0088-.4199.4316-.7471.9326-.9814,1.5029-.2334.5693-.3506,1.1963-.3506,1.8809,0,.6719.1201,1.2988.3604,1.8809.2393.582.5693,1.0859.9893,1.5117.4199.4268.9121.7598,1.4766.999.5635.2402,1.1758.3604,1.8359.3604.7441,0,1.416-.1533,2.0156-.459.6006-.3066,1.0918-.7324,1.4766-1.2783.3838-.5459.623-1.1611.7197-1.8447h-4.1943v-1.6563h6.1738v.6484c0,.8994-.1553,1.7334-.4678,2.502-.3115.7676-.7471,1.4395-1.3047,2.0156-.5586.5762-1.2148,1.0234-1.9707,1.3408-.7568.3184-1.5723.4775-2.4482.4775Z" style="fill:#fff; stroke-width:0px;"/><path d="M391.5927,84.7664v-5.0039l-5.0752-7.5957h2.2139l3.8701,5.9219,3.8691-5.9219h2.1064l-5.0938,7.6318v4.9678h-1.8906Z" style="fill:#fff; stroke-width:0px;"/></g></g></svg>