<svg xmlns="http://www.w3.org/2000/svg" version="1.1" xmlns:xlink="http://www.w3.org/1999/xlink" width="109.8806" height="84.642"><svg id="SvgjsSvg1005" xmlns="http://www.w3.org/2000/svg" viewBox="0 0 109.8806 84.642"><g id="SvgjsG1004"><g id="SvgjsG1003"><path d="M9.737,54.8609c0,5.3831,2.1004,10.4463,5.9395,14.2437,3.7835,3.7418,8.7772,5.8005,14.1047,5.8005h.1948l13.4092-.0417c3.7556,1.5857,7.72,3.7418,11.7678,6.4125,1.7665,1.1545,3.547,2.2535,5.3692,3.2689l-30.4906.0974h-.2782c-7.873,0-15.3148-3.0463-20.9344-8.6242C3.1297,70.3843,0,62.8591,0,54.8609c0-16.4277,13.3536-29.7952,29.7812-29.7952h41.7716c-.8346,1.4327-1.3075,3.1019-1.3075,4.8685s.4729,3.4357,1.3075,4.8684H29.7812c-11.0584,0-20.0442,8.9997-20.0442,20.0582Z" style="fill:#2a2a72; stroke-width:0px;"></path><path d="M109.2908,84.5446h-4.271c-11.3227,0-22.4503-2.4899-32.7854-7.2749-1.6553-.765-3.2828-1.5857-4.8963-2.476-1.9336-1.0432-3.8253-2.1838-5.6892-3.4079-5.9396-3.8948-14.0769-8.3599-22.6594-10.4047,1.3076-1.6413,2.0726-3.7278,2.0726-5.9813,0-1.7804-.4729-3.4496-1.3214-4.8963h40.2276c5.5359,0,10.6826-2.1978,14.5217-6.1621,3.8391-3.9782,5.8423-9.2084,5.6477-14.7445-.3892-10.7246-9.6951-19.4322-20.7536-19.4322l-79.3841-.0278V0l79.3841.0278c16.2471,0,29.9204,12.9223,30.4769,28.8214.2919,8.193-2.6707,15.9547-8.3602,21.8525-5.6887,5.8839-13.3396,9.1388-21.5325,9.1388h-18.5003c1.8361,1.0571,3.6722,2.1977,5.5361,3.4218,11.4897,7.5531,24.6206,11.5452,37.9601,11.5452h4.8684l-.542,9.737Z" style="fill:#2a2a72; stroke-width:0px;"></path><path d="M31.3252,64.7369c5.3776,0,9.737-4.3594,9.737-9.737s-4.3593-9.737-9.737-9.737-9.7369,4.3594-9.7369,9.737,4.3593,9.737,9.7369,9.737Z" style="fill:#00a7b6; stroke-width:0px;"></path><path d="M79.9822,39.6711c5.3777,0,9.7366-4.3593,9.7366-9.7369s-4.3589-9.737-9.7366-9.737-9.737,4.3594-9.737,9.737,4.3594,9.7369,9.737,9.7369Z" style="fill:#00a7b6; stroke-width:0px;"></path></g></g></svg><style>@media (prefers-color-scheme: light) { :root { filter: none; } }
@media (prefers-color-scheme: dark) { :root { filter: none; } }
</style></svg>